<?xml version="1.0" encoding="UTF-8"?>
<svg width="491px" height="760px" viewBox="0 0 491 760" version="1.1" xmlns="http://www.w3.org/2000/svg" xmlns:xlink="http://www.w3.org/1999/xlink">
    <title>logo 2</title>
    <g id="页面-1" stroke="none" stroke-width="1" fill="none" fill-rule="evenodd">
        <g id="logo" transform="translate(3.000000, 3.709328)">
            <ellipse id="椭圆形" stroke="#979797" stroke-width="3" fill="#F8A23D" cx="240" cy="511.790672" rx="241.5" ry="243"></ellipse>
            <path d="M396.758367,-1.54781909 C396.990148,-1.52222486 397.228932,-1.45097976 397.505359,-1.31935575 C398.139493,-1.01740563 398.402079,-0.668951363 398.66433,-0.0989007172 C398.737063,0.059198295 398.836611,0.268849682 398.960599,0.530123204 C399.520181,1.70931004 400.560817,3.90236608 401.887527,7.11136801 C402.473782,8.5293828 403.115967,10.1459973 403.79717,11.9614111 C404.457527,13.7212705 405.154632,15.6681656 405.873041,17.8022778 C406.656926,20.1308931 407.466243,22.6826096 408.280892,25.4576608 C408.698984,26.8818666 409.067008,28.8395864 409.374936,31.3331174 C409.620376,33.3206404 409.830141,35.6578102 410.003481,38.3447005 C410.053934,39.1267596 410.11749,40.1135167 410.169702,41.270086 C410.19165,41.756273 410.209193,42.2689999 410.227881,42.8162462 C410.239574,43.1586494 410.251732,43.5147806 410.265783,43.8866562 C410.298249,44.7459302 410.312267,46.016813 410.307025,47.6993241 C410.304508,48.5073345 410.25913,49.9481227 410.169653,52.0258538 L409.960886,56.5784604 L409.669635,60.9715797 L409.235094,65.5936303 L408.329567,75.2253863 L407.388772,80.6514178 L406.036126,88.452796 L404.96274,94.6435458 C404.239874,97.2874059 403.713768,99.1940262 403.384456,100.363416 C401.883159,105.694521 400.662284,109.672336 399.724056,112.2976 C397.835757,117.581264 395.817661,122.212069 393.673141,126.191549 C393.122169,127.213961 392.408368,128.73401 391.478021,130.711524 C391.274655,131.143791 391.06117,131.597566 390.837046,132.072456 C389.061205,135.835234 386.61974,140.918564 383.256061,147.127991 C381.149715,151.016353 378.681838,155.346102 375.789344,160.069457 C374.222367,162.628283 372.593761,165.271952 370.767452,168.054296 C370.181644,168.946762 369.518844,169.937311 368.904981,170.85175 C368.620296,171.27583 368.3231,171.706932 368.015045,172.153711 C367.622806,172.722585 367.212528,173.317495 366.788054,173.957372 C366.338426,174.635169 365.873822,175.342882 365.388261,176.082507 C365.137587,176.464344 364.881352,176.854652 364.618739,177.253705 C364.231539,177.842074 363.772145,178.571829 363.233581,179.427043 C362.557599,180.500473 361.759123,181.768335 360.825388,183.200541 C360.610225,183.537037 360.402408,183.865336 360.193943,184.194648 C359.756676,184.885399 359.316569,185.58052 358.802358,186.362466 C358.517744,186.795271 358.075872,187.46494 357.476718,188.371606 C356.887568,189.279773 356.13925,190.39964 355.231632,191.731119 C354.566755,192.706499 353.775419,193.907854 352.917774,195.209717 C352.087665,196.469646 351.388666,197.55785 350.836965,198.41671 C350.682223,198.657603 350.538991,198.88058 350.411551,199.07842 C349.871273,199.91716 349.335636,200.762004 348.79056,201.621713 C348.267482,202.446724 347.735771,203.285336 347.183181,204.145208 L346.842,204.677 L348.521696,202.693777 L351.124093,199.617497 L353.460164,196.91221 L355.465572,194.539067 L358.164484,191.439407 L360.265441,189.012632 L363.345047,185.571555 L366.457703,182.315387 L369.978085,178.521838 L372.981148,175.285787 L376.682667,171.250027 L381.737403,165.683203 L385.290701,161.763497 L389.92374,156.88661 L395.664622,151.235198 L400.001089,146.874259 L403.750061,143.085195 L407.412781,139.134671 L411.218146,135.128444 L414.09811,132.050171 L417.906547,128.132296 L421.301001,124.6133 L424.40202,121.129843 L427.668408,117.570555 L431.166886,113.574727 L433.463568,110.833556 L436.889014,106.715545 L440.348564,102.622259 L443.073306,99.416947 L445.357931,96.5155832 L448.029242,93.0503068 L450.356755,89.7903629 L452.398168,87.0303186 L454.774937,83.7003309 L457.174741,80.2778989 L459.487534,76.642285 L461.781107,72.8828529 L465.149471,67.1771766 L468.177238,61.7836617 L470.96647,56.5259849 L472.946,52.4817584 L474.656528,48.2924481 L476.307966,43.9215388 L477.707359,39.8481709 L479.135804,34.8550193 L479.861905,32.3012314 L480.607099,29.7271704 L481.122109,27.7730126 L481.474673,26.1808876 C482.035548,23.5209313 482.366704,21.9211361 482.467625,21.3814037 C482.729247,19.9822236 483.156557,19.6082464 483.317381,19.4809848 C483.477311,19.3544301 483.935272,19.0274857 485.338656,19.0898272 C485.446942,19.3968973 485.562888,19.7689636 485.696931,20.2685223 C485.996463,21.3848302 486.05553,21.9047941 486.122409,22.4903883 C486.208311,23.2425525 486.307304,24.112005 486.381633,25.1732211 C486.405709,25.5169596 486.433964,26.6409775 486.463293,28.5454662 L486.463293,33.3693208 L486.384861,35.6880478 L486.324183,39.2000929 L486.199607,42.3713217 L486.023766,46.0079901 L485.654977,49.9798801 L485.238675,53.803779 L484.196993,60.1015016 L483.133954,65.4104953 L481.850268,70.3228977 L480.441802,75.2802953 L478.53719,81.3170347 L476.136036,87.5968445 L474.470762,91.117459 L472.629115,94.9732252 L470.514253,98.7079621 L467.585874,103.868325 L464.490426,109.06239 L460.860326,115.062795 L457.418879,120.508008 L454.603659,124.693883 L451.21244,129.59231 L447.735322,134.277449 L443.247771,140.038968 L434.740987,150.597872 L426.49777,160.829627 L420.954129,168.068989 L416.507231,173.534799 L411.895321,179.393013 L408.570944,183.623212 L405.518825,187.520606 L402.234487,191.634578 L398.988957,195.609577 L395.806472,199.500399 L391.837927,204.611298 L389.03809,208.155988 L385.977759,211.936324 L382.828737,216.023274 L379.81504,219.993902 L376.6832,224.231776 L374.120381,227.910801 L371.57743,231.598307 L368.904809,235.52954 L367.307057,237.937671 L365.71512,240.418514 L364.088168,243.043221 L362.293952,245.828338 L361.014719,248.250708 L359.526472,250.955091 L358.176671,253.579558 L356.811834,256.50969 L355.188472,259.715039 L353.777635,262.890548 L352.195275,266.679167 L351.101604,269.633608 L350.118231,272.965284 L348.795478,277.729922 L347.763884,281.971137 L347.097948,286.412771 L347.097948,290.796501 L347.402718,293.494632 L348.27826,294.946554 L428.30604,483.272055 L429.578858,505.965941 L429.578858,534.017324 L428.31297,547.20384 L426.487576,560.086786 L433.329116,554.418925 L425.744443,578.601372 L412.047834,608.64066 L399.564506,629.776215 L402.052814,658.955558 L382.655734,679.574053 L342.499783,669.730637 L330.400054,678.990339 L316.109239,688.296442 L294.710805,700.140339 L276.915613,708.031713 L65.4479088,654.280481 L31.0654035,608.789696 L25.9619474,600.381149 L20.5879413,586.985255 L10.8221042,572.418417 L1.81287017,544.611033 L1.81287017,538.194082 L13.0513215,546.857385 L22.6798333,553.086457 L32.9741962,558.506944 L44.8880776,564.047676 L57.5465208,569.078957 L77.7557777,575.644897 L94.1208102,579.242992 L106.953422,581.160083 L125.846038,583.755857 L138.589784,584.781866 L154.526794,585.090672 L172.192826,585.090672 L186.815716,584.782819 L202.86472,582.615522 L218.665021,579.255471 L227.769467,577.093343 L238.748888,574.867338 L253.499567,571.873108 L267.567071,569.024643 L281.248271,566.25087 L288.748732,565.165225 L295.363975,564.19457 L303.329181,563.910486 L306.29858,565.753917 L307.423349,574.944543 L308.225086,582.566245 L308.225086,589.205507 L306.632327,606.636878 L304.390725,621.095283 L303.132,625.057 L306.388641,618.199626 L310.790159,607.449023 L313.179911,599.325272 L314.337138,594.384133 L314.957695,590.884394 L315.23093,588.904253 L315.501464,587.370336 L315.7,585.1798 L315.7,565.425815 C315.7,564.929542 315.632809,564.211441 315.506703,563.271132 L314.965111,560.127317 L314.331374,556.989777 L313.74908,553.466812 C313.517612,552.141523 313.324102,551.131167 313.167481,550.435965 C313.009651,549.735398 312.740888,548.695821 312.362241,547.316981 L311.537037,544.008153 L310.20533,539.3116 L308.827762,536.438284 C308.629097,535.897657 308.447011,535.411517 308.281472,534.979878 C308.120165,534.559274 307.905691,534.010778 307.638086,533.334375 L306.369993,529.791738 L305.394213,527.645632 L304.037505,525.372581 L303.335441,523.62378 L303.772431,521.545786 L305.744785,519.702123 L309.999844,516.321255 L314.649423,511.11774 L319.891981,504.238971 L323.758278,498.258894 L324.863,496.112 L323.679763,497.445514 L319.607097,501.545732 L314.662837,505.190824 L309.81528,508.284012 L303.643805,511.775379 L299.069263,514.173263 L293.800439,516.547312 L286.960413,519.261087 L275.042221,523.438539 L264.199813,526.92985 L248.059676,531.619963 L232.336072,535.893152 L210.529562,541.475751 L198.484061,545.076964 L194.937369,545.823608 L191.304889,547.051412 L187.054624,547.74958 L182.346015,547.74958 L177.263057,547.021353 L172.857791,543.707914 L170.228335,541.056516 L166.482912,536.832094 L158.209799,526.914539 L157.911,526.519 L157.322055,526.883859 L154.67989,527.481857 L150.76497,527.481857 L147.296441,525.190296 L145.488363,522.127716 L142.954277,518.255094 L140.352654,514.513598 L137.656798,511.241514 L136.003974,507.299837 L136.003974,502.686499 L137.607737,498.328268 L141.615436,492.287483 L147.200331,484.179105 L155.463554,473.497514 L163.428024,462.654948 L170.950537,451.90331 L179.742123,437.335912 L187.807771,425.188784 L195.813835,413.135422 L205.093386,398.97431 L213.490482,387.267191 L223.09828,375.517031 L232.130032,365.154402 L241.962414,355.260401 L251.418806,346.649614 L263.917088,337.796231 L271.36582,333.750511 L278.100132,330.93308 L281.253159,329.91885 L281.253159,329.369335 L280.04585,324.18061 L278.535648,317.847536 L277.136109,310.029788 L276.249933,302.676527 L276,294.839779 L276,288.742672 L276.250826,283.192859 L276.673817,279.399404 L277.182169,275.359627 L277.397143,273.474642 L277.637252,271.830871 L278.061216,269.283868 L278.717122,265.836147 L279.379262,262.66255 L280.162152,259.73565 L280.65778,257.882702 L281.41314,255.402978 L282.180973,253.047104 L282.90865,251.053707 L283.880368,248.391789 L284.388171,246.912866 L285.050408,245.294558 L285.984437,243.047396 L287.062522,240.527933 L288.22736,237.805731 L289.710075,234.567114 L291.429123,230.898159 L292.711789,228.486982 L294.553793,224.872228 L296.606359,220.844267 L298.685708,217.009276 L300.584823,213.494795 L301.885845,211.20655 L303.143882,209.054626 L304.871705,206.210702 L306.763307,203.130568 L308.768846,199.988813 L310.061933,197.963142 L313.307539,192.878774 L314.642828,190.786992 L317.562983,186.212456 L320.064606,182.376843 L323.61459,176.732379 L329.59695,167.36078 L333.385939,161.425182 L337.779712,154.542165 L342.974284,146.404666 L347.184532,139.80915 L350.525268,134.575758 L355.670099,126.51618 L359.511754,120.498077 L360.576429,118.830275 L362.18365,116.27828 L363.177137,114.657913 L364.503926,112.445169 L366.04958,109.913865 L366.993051,108.210908 L369.522194,103.645828 L370.59437,101.713619 L372.222361,98.6735411 L373.495685,96.1345374 L374.696886,93.6307494 L378.185722,86.3586069 L380.010024,82.5560258 L381.039067,80.2283826 L382.163583,77.5614113 L384.010193,72.8106867 L386.418084,66.6159702 L387.644184,63.4616142 L388.467627,61.3431655 L389.394106,58.749824 L390.331932,56.1472062 L391.857205,51.5138573 L392.930342,48.3640304 L393.686727,46.0739783 L394.319528,43.9622664 L394.824517,41.9102822 L395.353877,39.5045916 L395.751364,37.3749364 L395.980023,35.8086592 L396.275532,33.8519905 L396.457372,31.5864009 L396.680454,28.7225366 L396.777812,26.9466806 L396.81155,25.263083 L396.811212,22.2387692 L396.810938,20.3926456 C396.807885,19.1497797 396.781608,18.3603073 396.762932,17.7985707 C396.755729,17.5819096 396.749643,17.3974649 396.746179,17.23353 C396.71178,15.6058785 396.637719,14.2303137 396.52981,13.4443114 C396.418011,12.6299797 396.325891,11.7100822 396.239549,10.8442659 C396.173546,10.1824164 396.1111,9.55361141 396.044534,9.03593478 C395.557866,5.25121438 395.291957,2.65859379 395.253072,1.25661477 C395.216144,-0.0748382422 395.522551,-0.693610807 395.68878,-0.901582253 C395.807587,-1.05022395 396.115305,-1.31495492 396.758367,-1.54781909 Z" id="yang" stroke="#979797" stroke-width="3" fill="#503D31"></path>
            <path d="M269.884579,297.896886 L303.189732,315.334733 L433.198526,481.215016 L434.578858,505.825835 L434.578858,534.256771 L433.279325,547.793762 L443.160242,539.781416 L430.422492,580.393578 L418.195668,607.209344 L435.222561,630.850051 L405.240623,662.86411 L384.298625,685.124805 L343.636065,675.157203 L333.287798,683.076544 L318.68744,692.584219 L296.939246,704.621706 L277.65197,713.174753 L124.255695,688.403434 L88.4636528,641.047719 L58.164,591.127 L37.7943072,601.914919 L37.7943072,555.704436 L48.8611788,560.280406 L50.2059292,560.773241 L52.5216044,561.68862 L55.8860809,563.032025 L59.2490376,564.374824 L79.068243,570.814037 L95.0280831,574.323044 L107.663121,576.210619 L126.387387,578.783263 L138.839076,579.785758 L154.575231,580.090672 L172.1402,580.090672 L186.427284,579.789889 L202.008923,577.685706 L217.567217,574.377119 L226.694785,572.209501 L237.754227,569.967272 L252.507278,566.972561 L266.573567,564.124342 L280.392713,561.322601 L288.029107,560.217278 L294.910557,559.207562 L304.672691,558.859389 L310.271,562.335 L310.049878,561.046902 L309.412778,557.892711 L308.819748,554.304791 C308.608288,553.094995 308.433132,552.171373 308.289734,551.534868 C308.141132,550.875262 307.884705,549.892177 307.525196,548.584466 L306.704927,545.295426 L305.511712,541.087294 L304.215685,538.384054 C303.994155,537.778396 303.793333,537.240448 303.61302,536.770284 C303.450492,536.346495 303.232253,535.788881 302.958482,535.097373 L301.732456,531.672255 L300.95797,529.968871 L299.543375,527.598834 L298.130338,524.079044 L299.059,519.661 L295.750434,521.152802 L288.710043,523.946073 L276.635697,528.178258 L265.663992,531.711203 L249.413031,536.43352 L233.611803,540.727805 L211.866214,546.294808 L199.717292,549.92694 L196.257527,550.655284 L192.518703,551.919033 L187.462552,552.74958 L181.989663,552.74958 L175.283352,551.788778 L169.562729,547.485988 L166.579754,544.478121 L162.69167,540.092792 L156.166,532.271 L155.238646,532.481857 L149.262441,532.481857 L143.616205,528.751544 L140.901707,524.293109 L138.797905,521.035854 L136.363987,517.535543 L133.330174,513.853264 L131.003974,508.305711 L131.003974,501.795735 L133.117575,496.052015 L137.473027,489.487065 L143.160992,481.229047 L151.470716,470.487345 L159.364242,459.74136 L166.756947,449.175251 L175.517058,434.660007 L183.642814,422.422355 L191.642829,410.378049 L200.969041,396.145727 L209.519674,384.224549 L219.277318,372.291131 L228.468197,361.745927 L238.503795,351.647435 L248.2788,342.746526 L261.269461,333.544358 L269.202175,329.235768 L275.477,326.61 L275.178094,325.323094 L273.638988,318.868809 L269.884579,297.896886 Z M61.7665734,589.22097 L60.502,589.89 L66.134,595.817 L61.7665734,589.22097 Z" id="yang备份" stroke="#FFFFFF" stroke-width="13"></path>
            <path d="M240,753.290672 C372.54834,753.290672 480,645.16744 480,511.790672 C480,453.148224 459.228065,399.387642 424.683995,357.552477 C393.334805,319.586523 350.643163,291.4421 301.840785,278.38362 C282.110731,273.104277 350.255474,330.672687 328.873573,330.672687 C292.662828,330.672687 314.851707,366.534692 358.759255,466.54747 C394.636022,548.267707 364.955713,634.819074 345.460036,654.222899 C329.421016,670.186353 189.142742,636.705253 160.818798,634.955357 C111.472793,631.906686 40.6843529,563.636803 40.6843529,606.31001 C40.6843529,613.447899 19.0698693,569.908794 8.04990242,550.059495 C6.58387027,547.41886 8.10383158,547.139609 7.08863936,545.512596 C5.9079878,543.620406 4.34219152,541.977757 3.10990985,541.279281 C2.91960277,541.171412 3.09908527,541.267241 2.77434181,541.065216 C2.68514821,541.009728 1.66676245,540.224783 1.70050817,540.518837 C15.8063246,660.365376 117.103969,753.290672 240,753.290672 Z" id="椭圆形" fill="#503D31"></path>
            <path d="M315.22789,553.21548 L315.806953,556.718897 L316.439681,559.851442 L316.989639,563.043817 C317.12988,564.084949 317.2,564.878948 317.2,565.425815 C317.2,565.972681 317.2,566.740526 317.2,567.729351 L317.2,569.448354 L317.2,571.756984 L317.2,575.114123 L317.2,578.558496 L317.2,580.718976 L317.2,582.644922 L317.2,585.247636 L316.989639,587.56865 L316.713011,589.13712 L316.439681,591.117943 L315.806953,594.686326 L314.630805,599.708255 L312.207473,607.946157 L307.761255,618.805939 L298.936188,637.392382 L298.412378,635.779241 L298.655647,634.250197 L299.89068,630.309837 L302.926127,620.751347 L305.14283,606.453547 L306.725086,589.13712 L306.725086,582.644922 L305.932911,575.114123 L304.896971,566.649334 L302.926127,565.425815 L315.22789,553.21548 Z" id="yang备份-3" fill="#FFFFFF"></path>
            <polygon id="yang备份-2" fill="#FFFFFF" points="286.435524 517.855592 293.21544 515.165665 298.412378 512.824007 302.926127 510.457989 309.042006 506.998075 313.813387 503.953494 318.624151 500.406821 322.585989 496.41818 325.508002 493.127608 328.237474 489.990518 329.901413 487.270891 330.62125 486.405555 330.341143 488.839153 328.917333 491.512867 325.058124 499.011143 321.120152 505.102083 315.806953 512.07354 311.033134 517.416095 306.725086 520.839066 305.14283 522.318083 304.896971 523.4872 305.385745 524.704705 306.725086 526.948661"></polygon>
            <path d="M3.72699621,534.417994 C2.00759614,530.638015 2.44115145,528.036404 2.03899931,526.733804 C1.97000979,526.510342 2.02677133,527.332014 1.57942655,526.733804 C1.20911623,526.238607 0.314083512,524.263662 0.322628507,524.457487 C0.585997225,530.493767 0.981527472,534.579998 1.67743019,540.493254 C1.71557364,540.817368 3.91583396,539.084426 4.53231607,538.906532 C6.44272137,538.355259 5.96807134,539.344839 3.72699621,534.417994 Z" id="椭圆形" fill="#FFFFFF"></path>
            <polygon id="路径-2" fill="#503D31" points="44.2943072 565.425815 36.0626191 561.991287 28.336149 557.852354 26.5122217 561.639084 26.5122217 592.460001 40.9696616 610.834321 72.8843868 609.203622 85.6113109 603.325633 76.2354596 588.139583 58.9836797 576.971297"></polygon>
            <polygon id="路径-3" fill="#503D31" points="315.573656 344.909824 278.620198 309.807705 277.665983 290.925362 325.220693 302.359931 342.432751 338.570893"></polygon>
            <polygon id="路径" fill="#FFFFFF" points="33.1125056 560.366584 24.5450474 555.988974 20.2690269 553.637928 17.114603 551.369818 12.7841223 548.396572 7.67695986 544.879436 6.0551731 543.550157 3.31287017 541.432782 1.70050817 540.518837 3.31287017 535.861457 0.32239055 524.457487 6.0551731 528.942108 13.0569498 533.713405 19.857003 538.285727 28.5691124 543.550157 37.1861891 548.240825 38.5292816 548.971932"></polygon>
            <polygon id="路径-4" fill="#F8A23D" points="266.275163 279.174611 265.445411 297.325353 265.866927 305.781993 266.275163 312.477222 267.891297 322.76118 263.672384 312.477222 261.60974 311.488512 254.515662 297.325353 259.881265 285.519948"></polygon>
            <path d="M266.850125,271.783007 L266.504818,277.609914 L265.990223,284.915033 C265.912435,286.576026 265.864296,287.651824 265.845808,288.142429 C265.783353,289.799711 265.845808,290.66989 265.845808,290.925362 C265.845808,291.294275 265.910926,291.720617 266.041161,292.204389 L277.876936,294.750509 L277.981909,288.619587 L278.113374,282.328721 L278.236582,279.58468 L278.532244,276.774293 L278.910914,273.37956 L272.662508,272.50243 L266.850125,271.783007 Z" id="路径-5" fill="#FFFFFF"></path>
        </g>
    </g>
</svg>